<svg xmlns="http://www.w3.org/2000/svg" width="81.874" height="81.169" viewBox="0 0 81.874 81.169"><defs><style>.a,.b{fill:#000000;}.b{fill-rule:evenodd;}</style></defs><g transform="translate(-784.25 -482.345)"><path class="a" d="M796.711,586.6l-4-9.506L788.72,586.6Zm.643,1.517h-9.276l-2,4.727H784.25l7.609-17.7H793.6l7.609,17.7H799.35Z" transform="translate(0 -29.486)"/><path class="a" d="M823.52,592.929a8.652,8.652,0,0,1-4.459-1.163,8.244,8.244,0,0,1-3.116-3.224,9.991,9.991,0,0,1,0-9.228,8.25,8.25,0,0,1,3.127-3.224,9.2,9.2,0,0,1,7.9-.5,7.074,7.074,0,0,1,2.664,1.922l-1.117,1.188a6.433,6.433,0,0,0-4.923-2.1,6.906,6.906,0,0,0-3.591.96,6.83,6.83,0,0,0-2.533,2.629,8.116,8.116,0,0,0,0,7.484A6.811,6.811,0,0,0,820,590.3a6.9,6.9,0,0,0,3.591.961,6.346,6.346,0,0,0,4.923-2.125l1.117,1.188a7.2,7.2,0,0,1-2.674,1.935A8.729,8.729,0,0,1,823.52,592.929Z" transform="translate(-9.712 -29.415)"/><rect class="a" width="1.76" height="17.698" transform="translate(826.53 545.664)"/><path class="a" d="M872.7,591.231v1.617H860.927v-17.7h11.414v1.618h-9.654v6.3H871.3v1.592h-8.609v6.575Z" transform="translate(-24.362 -29.486)"/><path class="a" d="M892.275,592.929a10.125,10.125,0,0,1-3.555-.631,6.487,6.487,0,0,1-2.628-1.669l.689-1.441a6.533,6.533,0,0,0,2.4,1.554,8.3,8.3,0,0,0,3.092.594,5.4,5.4,0,0,0,3.353-.872,2.741,2.741,0,0,0,1.118-2.262,2.348,2.348,0,0,0-.607-1.695,4.045,4.045,0,0,0-1.486-.973,22.619,22.619,0,0,0-2.449-.746,24.4,24.4,0,0,1-3-.973,4.909,4.909,0,0,1-1.914-1.429,3.945,3.945,0,0,1-.8-2.6,4.462,4.462,0,0,1,2.712-4.2,7.933,7.933,0,0,1,3.424-.658,9.5,9.5,0,0,1,2.794.417,7.834,7.834,0,0,1,2.367,1.151l-.6,1.491a8.09,8.09,0,0,0-4.565-1.466,5.137,5.137,0,0,0-3.293.9,2.844,2.844,0,0,0-1.106,2.313,2.392,2.392,0,0,0,.607,1.708,3.94,3.94,0,0,0,1.522.985q.915.343,2.46.746a23.622,23.622,0,0,1,2.961.948,4.847,4.847,0,0,1,1.914,1.416,3.907,3.907,0,0,1,.785,2.565,4.549,4.549,0,0,1-.678,2.44,4.62,4.62,0,0,1-2.08,1.745A8.238,8.238,0,0,1,892.275,592.929Z" transform="translate(-32.357 -29.415)"/><path class="b" d="M867.777,486.394h4.038v-4.048h-4.038Zm-18.555.067h4.038v-4.049h-4.038Zm12.37.065h4.038v-4.049h-4.038Zm-6.185.059h4.038v-4.049h-4.038Zm12.37,5.737h4.038v-4.049h-4.038Zm-18.555.067h4.038v-4.049h-4.038Zm12.37.066h4.038v-4.048h-4.038Zm-6.185.06h4.038v-4.049h-4.038Zm12.37,5.737h4.038V494.2h-4.038Zm-18.555.067h4.038V494.27h-4.038Zm12.37.066h4.038v-4.048h-4.038Zm-6.185.06h4.038V494.4h-4.038Zm12.37,5.737h4.038v-4.049h-4.038Zm-6.185.133h4.038v-4.049h-4.038Zm-6.185.06h4.038v-4.048h-4.038Z" transform="translate(-20.643 0)"/><path class="b" d="M858.134,508.4a25.985,25.985,0,1,1-25.985-26.052V498a10.4,10.4,0,1,0,10.373,10.4Z" transform="translate(-6.963 0)"/></g></svg>